<mxfile host="app.diagrams.net" agent="Mozilla/5.0 (Windows NT 10.0; Win64; x64) AppleWebKit/537.36 (KHTML, like Gecko) Chrome/131.0.0.0 Safari/537.36" version="24.8.9">
  <diagram name="Page-1" id="WpA61XWYzvfKsBNA7Rf1">
    <mxGraphModel dx="1050" dy="522" grid="1" gridSize="10" guides="1" tooltips="1" connect="1" arrows="1" fold="1" page="1" pageScale="1" pageWidth="850" pageHeight="1100" math="0" shadow="0">
      <root>
        <mxCell id="0" />
        <mxCell id="1" parent="0" />
        <mxCell id="JkVt3vZNKoqGbdxMAuV6-2" value="" style="rounded=0;whiteSpace=wrap;html=1;" vertex="1" parent="1">
          <mxGeometry x="340" y="40" width="700" height="420" as="geometry" />
        </mxCell>
        <mxCell id="JkVt3vZNKoqGbdxMAuV6-3" value="AWS-EC2 Instance" style="text;html=1;align=center;verticalAlign=middle;resizable=0;points=[];autosize=1;strokeColor=none;fillColor=none;" vertex="1" parent="1">
          <mxGeometry x="340" y="10" width="130" height="30" as="geometry" />
        </mxCell>
        <mxCell id="JkVt3vZNKoqGbdxMAuV6-4" value="" style="rounded=0;whiteSpace=wrap;html=1;" vertex="1" parent="1">
          <mxGeometry x="362.5" y="70" width="515" height="380" as="geometry" />
        </mxCell>
        <mxCell id="JkVt3vZNKoqGbdxMAuV6-5" value="Minikube Cluster" style="text;html=1;align=center;verticalAlign=middle;resizable=0;points=[];autosize=1;strokeColor=none;fillColor=none;" vertex="1" parent="1">
          <mxGeometry x="360" y="50" width="110" height="30" as="geometry" />
        </mxCell>
        <mxCell id="JkVt3vZNKoqGbdxMAuV6-24" style="edgeStyle=orthogonalEdgeStyle;rounded=0;orthogonalLoop=1;jettySize=auto;html=1;exitX=0.25;exitY=1;exitDx=0;exitDy=0;entryX=0.25;entryY=0;entryDx=0;entryDy=0;" edge="1" parent="1" source="JkVt3vZNKoqGbdxMAuV6-7" target="JkVt3vZNKoqGbdxMAuV6-9">
          <mxGeometry relative="1" as="geometry" />
        </mxCell>
        <mxCell id="JkVt3vZNKoqGbdxMAuV6-7" value="Metadata" style="rounded=0;whiteSpace=wrap;html=1;" vertex="1" parent="1">
          <mxGeometry x="390" y="80" width="120" height="60" as="geometry" />
        </mxCell>
        <mxCell id="JkVt3vZNKoqGbdxMAuV6-23" style="edgeStyle=orthogonalEdgeStyle;rounded=0;orthogonalLoop=1;jettySize=auto;html=1;exitX=0.25;exitY=0;exitDx=0;exitDy=0;entryX=0.25;entryY=1;entryDx=0;entryDy=0;" edge="1" parent="1" source="JkVt3vZNKoqGbdxMAuV6-8" target="JkVt3vZNKoqGbdxMAuV6-9">
          <mxGeometry relative="1" as="geometry" />
        </mxCell>
        <mxCell id="JkVt3vZNKoqGbdxMAuV6-8" value="Download" style="rounded=0;whiteSpace=wrap;html=1;" vertex="1" parent="1">
          <mxGeometry x="390" y="360" width="120" height="60" as="geometry" />
        </mxCell>
        <mxCell id="JkVt3vZNKoqGbdxMAuV6-22" style="edgeStyle=orthogonalEdgeStyle;rounded=0;orthogonalLoop=1;jettySize=auto;html=1;exitX=0.75;exitY=1;exitDx=0;exitDy=0;entryX=0.75;entryY=0;entryDx=0;entryDy=0;" edge="1" parent="1" source="JkVt3vZNKoqGbdxMAuV6-9" target="JkVt3vZNKoqGbdxMAuV6-8">
          <mxGeometry relative="1" as="geometry" />
        </mxCell>
        <mxCell id="JkVt3vZNKoqGbdxMAuV6-46" value="/download" style="edgeLabel;html=1;align=center;verticalAlign=middle;resizable=0;points=[];" vertex="1" connectable="0" parent="JkVt3vZNKoqGbdxMAuV6-22">
          <mxGeometry x="-0.2444" y="1" relative="1" as="geometry">
            <mxPoint as="offset" />
          </mxGeometry>
        </mxCell>
        <mxCell id="JkVt3vZNKoqGbdxMAuV6-25" style="edgeStyle=orthogonalEdgeStyle;rounded=0;orthogonalLoop=1;jettySize=auto;html=1;exitX=0.75;exitY=0;exitDx=0;exitDy=0;entryX=0.75;entryY=1;entryDx=0;entryDy=0;" edge="1" parent="1" source="JkVt3vZNKoqGbdxMAuV6-9" target="JkVt3vZNKoqGbdxMAuV6-7">
          <mxGeometry relative="1" as="geometry" />
        </mxCell>
        <mxCell id="JkVt3vZNKoqGbdxMAuV6-45" value="/getMetadata" style="edgeLabel;html=1;align=center;verticalAlign=middle;resizable=0;points=[];" vertex="1" connectable="0" parent="JkVt3vZNKoqGbdxMAuV6-25">
          <mxGeometry x="0.1143" relative="1" as="geometry">
            <mxPoint as="offset" />
          </mxGeometry>
        </mxCell>
        <mxCell id="JkVt3vZNKoqGbdxMAuV6-28" style="edgeStyle=orthogonalEdgeStyle;rounded=0;orthogonalLoop=1;jettySize=auto;html=1;exitX=1;exitY=0;exitDx=0;exitDy=0;entryX=0;entryY=0.5;entryDx=0;entryDy=0;" edge="1" parent="1" source="JkVt3vZNKoqGbdxMAuV6-9" target="JkVt3vZNKoqGbdxMAuV6-26">
          <mxGeometry relative="1" as="geometry">
            <Array as="points">
              <mxPoint x="550" y="210" />
              <mxPoint x="550" y="118" />
            </Array>
          </mxGeometry>
        </mxCell>
        <mxCell id="JkVt3vZNKoqGbdxMAuV6-47" value="upload docx file" style="edgeLabel;html=1;align=center;verticalAlign=middle;resizable=0;points=[];" vertex="1" connectable="0" parent="JkVt3vZNKoqGbdxMAuV6-28">
          <mxGeometry x="-0.0379" relative="1" as="geometry">
            <mxPoint as="offset" />
          </mxGeometry>
        </mxCell>
        <mxCell id="JkVt3vZNKoqGbdxMAuV6-9" value="Gateway" style="rounded=0;whiteSpace=wrap;html=1;" vertex="1" parent="1">
          <mxGeometry x="390" y="210" width="120" height="60" as="geometry" />
        </mxCell>
        <mxCell id="JkVt3vZNKoqGbdxMAuV6-20" style="edgeStyle=orthogonalEdgeStyle;rounded=0;orthogonalLoop=1;jettySize=auto;html=1;exitX=0.5;exitY=1;exitDx=0;exitDy=0;" edge="1" parent="1" source="JkVt3vZNKoqGbdxMAuV6-10" target="JkVt3vZNKoqGbdxMAuV6-14">
          <mxGeometry relative="1" as="geometry" />
        </mxCell>
        <mxCell id="JkVt3vZNKoqGbdxMAuV6-30" style="edgeStyle=orthogonalEdgeStyle;rounded=0;orthogonalLoop=1;jettySize=auto;html=1;exitX=0.5;exitY=0;exitDx=0;exitDy=0;entryX=0.5;entryY=1;entryDx=0;entryDy=0;" edge="1" parent="1" source="JkVt3vZNKoqGbdxMAuV6-10" target="JkVt3vZNKoqGbdxMAuV6-26">
          <mxGeometry relative="1" as="geometry" />
        </mxCell>
        <mxCell id="JkVt3vZNKoqGbdxMAuV6-49" value="upload&lt;div&gt;pdf&lt;/div&gt;" style="edgeLabel;html=1;align=center;verticalAlign=middle;resizable=0;points=[];" vertex="1" connectable="0" parent="JkVt3vZNKoqGbdxMAuV6-30">
          <mxGeometry x="-0.4167" y="-1" relative="1" as="geometry">
            <mxPoint as="offset" />
          </mxGeometry>
        </mxCell>
        <mxCell id="JkVt3vZNKoqGbdxMAuV6-10" value="Docx to Pdf&lt;div&gt;Converter&lt;/div&gt;" style="rounded=0;whiteSpace=wrap;html=1;" vertex="1" parent="1">
          <mxGeometry x="730" y="210" width="120" height="60" as="geometry" />
        </mxCell>
        <mxCell id="JkVt3vZNKoqGbdxMAuV6-11" value="Notification" style="rounded=0;whiteSpace=wrap;html=1;" vertex="1" parent="1">
          <mxGeometry x="580" y="360" width="120" height="60" as="geometry" />
        </mxCell>
        <mxCell id="JkVt3vZNKoqGbdxMAuV6-19" style="edgeStyle=orthogonalEdgeStyle;rounded=0;orthogonalLoop=1;jettySize=auto;html=1;exitX=1;exitY=0.5;exitDx=0;exitDy=0;exitPerimeter=0;entryX=0;entryY=0.5;entryDx=0;entryDy=0;" edge="1" parent="1" source="JkVt3vZNKoqGbdxMAuV6-13" target="JkVt3vZNKoqGbdxMAuV6-10">
          <mxGeometry relative="1" as="geometry" />
        </mxCell>
        <mxCell id="JkVt3vZNKoqGbdxMAuV6-13" value="" style="outlineConnect=0;dashed=0;verticalLabelPosition=bottom;verticalAlign=top;align=center;html=1;shape=mxgraph.aws3.queue;fillColor=#D9A741;gradientColor=none;" vertex="1" parent="1">
          <mxGeometry x="580" y="210" width="90" height="50" as="geometry" />
        </mxCell>
        <mxCell id="JkVt3vZNKoqGbdxMAuV6-21" style="edgeStyle=orthogonalEdgeStyle;rounded=0;orthogonalLoop=1;jettySize=auto;html=1;exitX=1;exitY=0.5;exitDx=0;exitDy=0;exitPerimeter=0;entryX=1;entryY=0.5;entryDx=0;entryDy=0;" edge="1" parent="1" source="JkVt3vZNKoqGbdxMAuV6-14" target="JkVt3vZNKoqGbdxMAuV6-11">
          <mxGeometry relative="1" as="geometry" />
        </mxCell>
        <mxCell id="JkVt3vZNKoqGbdxMAuV6-14" value="" style="outlineConnect=0;dashed=0;verticalLabelPosition=bottom;verticalAlign=top;align=center;html=1;shape=mxgraph.aws3.queue;fillColor=#D9A741;gradientColor=none;rotation=-180;" vertex="1" parent="1">
          <mxGeometry x="745" y="360" width="90" height="50" as="geometry" />
        </mxCell>
        <mxCell id="JkVt3vZNKoqGbdxMAuV6-36" style="edgeStyle=orthogonalEdgeStyle;rounded=0;orthogonalLoop=1;jettySize=auto;html=1;exitX=0.5;exitY=0;exitDx=0;exitDy=0;exitPerimeter=0;entryX=1;entryY=0.25;entryDx=0;entryDy=0;" edge="1" parent="1" source="JkVt3vZNKoqGbdxMAuV6-15" target="JkVt3vZNKoqGbdxMAuV6-26">
          <mxGeometry relative="1" as="geometry">
            <Array as="points">
              <mxPoint x="940" y="110" />
              <mxPoint x="816" y="110" />
            </Array>
          </mxGeometry>
        </mxCell>
        <mxCell id="JkVt3vZNKoqGbdxMAuV6-15" value="Mongo" style="strokeWidth=2;html=1;shape=mxgraph.flowchart.database;whiteSpace=wrap;" vertex="1" parent="1">
          <mxGeometry x="900" y="200" width="80" height="80" as="geometry" />
        </mxCell>
        <mxCell id="JkVt3vZNKoqGbdxMAuV6-17" value="" style="sketch=0;outlineConnect=0;fontColor=#232F3E;gradientColor=none;fillColor=#232F3D;strokeColor=none;dashed=0;verticalLabelPosition=bottom;verticalAlign=top;align=center;html=1;fontSize=12;fontStyle=0;aspect=fixed;pointerEvents=1;shape=mxgraph.aws4.client;" vertex="1" parent="1">
          <mxGeometry x="130" y="204" width="78" height="76" as="geometry" />
        </mxCell>
        <mxCell id="JkVt3vZNKoqGbdxMAuV6-18" style="edgeStyle=orthogonalEdgeStyle;rounded=0;orthogonalLoop=1;jettySize=auto;html=1;exitX=1;exitY=0.5;exitDx=0;exitDy=0;entryX=0;entryY=0.5;entryDx=0;entryDy=0;entryPerimeter=0;" edge="1" parent="1" source="JkVt3vZNKoqGbdxMAuV6-9" target="JkVt3vZNKoqGbdxMAuV6-13">
          <mxGeometry relative="1" as="geometry" />
        </mxCell>
        <mxCell id="JkVt3vZNKoqGbdxMAuV6-29" style="edgeStyle=orthogonalEdgeStyle;rounded=0;orthogonalLoop=1;jettySize=auto;html=1;exitX=0;exitY=0.75;exitDx=0;exitDy=0;entryX=0.25;entryY=0;entryDx=0;entryDy=0;" edge="1" parent="1" source="JkVt3vZNKoqGbdxMAuV6-26" target="JkVt3vZNKoqGbdxMAuV6-10">
          <mxGeometry relative="1" as="geometry" />
        </mxCell>
        <mxCell id="JkVt3vZNKoqGbdxMAuV6-50" value="get&amp;nbsp;&lt;div&gt;docx&lt;/div&gt;&lt;div&gt;file&lt;/div&gt;" style="edgeLabel;html=1;align=center;verticalAlign=middle;resizable=0;points=[];" vertex="1" connectable="0" parent="JkVt3vZNKoqGbdxMAuV6-29">
          <mxGeometry x="-0.2076" y="-1" relative="1" as="geometry">
            <mxPoint as="offset" />
          </mxGeometry>
        </mxCell>
        <mxCell id="JkVt3vZNKoqGbdxMAuV6-34" style="edgeStyle=orthogonalEdgeStyle;rounded=0;orthogonalLoop=1;jettySize=auto;html=1;exitX=0.75;exitY=1;exitDx=0;exitDy=0;entryX=0.5;entryY=1;entryDx=0;entryDy=0;" edge="1" parent="1" source="JkVt3vZNKoqGbdxMAuV6-26" target="JkVt3vZNKoqGbdxMAuV6-8">
          <mxGeometry relative="1" as="geometry">
            <Array as="points">
              <mxPoint x="799" y="160" />
              <mxPoint x="860" y="160" />
              <mxPoint x="860" y="440" />
              <mxPoint x="450" y="440" />
            </Array>
          </mxGeometry>
        </mxCell>
        <mxCell id="JkVt3vZNKoqGbdxMAuV6-48" value="download pdf file" style="edgeLabel;html=1;align=center;verticalAlign=middle;resizable=0;points=[];" vertex="1" connectable="0" parent="JkVt3vZNKoqGbdxMAuV6-34">
          <mxGeometry x="0.5529" y="2" relative="1" as="geometry">
            <mxPoint x="-16" y="-2" as="offset" />
          </mxGeometry>
        </mxCell>
        <mxCell id="JkVt3vZNKoqGbdxMAuV6-26" value="" style="image;aspect=fixed;perimeter=ellipsePerimeter;html=1;align=center;shadow=0;dashed=0;spacingTop=3;image=img/lib/active_directory/database.svg;" vertex="1" parent="1">
          <mxGeometry x="745" y="90" width="75" height="55.5" as="geometry" />
        </mxCell>
        <mxCell id="JkVt3vZNKoqGbdxMAuV6-27" value="host.minikube.internal" style="text;html=1;align=center;verticalAlign=middle;resizable=0;points=[];autosize=1;strokeColor=none;fillColor=none;" vertex="1" parent="1">
          <mxGeometry x="712.5" y="70" width="140" height="30" as="geometry" />
        </mxCell>
        <mxCell id="JkVt3vZNKoqGbdxMAuV6-35" style="edgeStyle=orthogonalEdgeStyle;rounded=0;orthogonalLoop=1;jettySize=auto;html=1;exitX=1;exitY=0.75;exitDx=0;exitDy=0;entryX=0;entryY=0.15;entryDx=0;entryDy=0;entryPerimeter=0;" edge="1" parent="1" source="JkVt3vZNKoqGbdxMAuV6-26" target="JkVt3vZNKoqGbdxMAuV6-15">
          <mxGeometry relative="1" as="geometry">
            <Array as="points">
              <mxPoint x="900" y="130" />
            </Array>
          </mxGeometry>
        </mxCell>
        <mxCell id="JkVt3vZNKoqGbdxMAuV6-37" value="docx_queue" style="text;html=1;align=center;verticalAlign=middle;resizable=0;points=[];autosize=1;strokeColor=none;fillColor=none;" vertex="1" parent="1">
          <mxGeometry x="580" y="260" width="90" height="30" as="geometry" />
        </mxCell>
        <mxCell id="JkVt3vZNKoqGbdxMAuV6-38" value="pdf_queue" style="text;html=1;align=center;verticalAlign=middle;resizable=0;points=[];autosize=1;strokeColor=none;fillColor=none;" vertex="1" parent="1">
          <mxGeometry x="755" y="410" width="80" height="30" as="geometry" />
        </mxCell>
        <mxCell id="JkVt3vZNKoqGbdxMAuV6-41" value="" style="endArrow=classic;html=1;rounded=0;entryX=0;entryY=0.25;entryDx=0;entryDy=0;" edge="1" parent="1" source="JkVt3vZNKoqGbdxMAuV6-17" target="JkVt3vZNKoqGbdxMAuV6-9">
          <mxGeometry width="50" height="50" relative="1" as="geometry">
            <mxPoint x="520" y="280" as="sourcePoint" />
            <mxPoint x="570" y="230" as="targetPoint" />
          </mxGeometry>
        </mxCell>
        <mxCell id="JkVt3vZNKoqGbdxMAuV6-43" value="request" style="edgeLabel;html=1;align=center;verticalAlign=middle;resizable=0;points=[];" vertex="1" connectable="0" parent="JkVt3vZNKoqGbdxMAuV6-41">
          <mxGeometry x="0.1038" y="1" relative="1" as="geometry">
            <mxPoint as="offset" />
          </mxGeometry>
        </mxCell>
        <mxCell id="JkVt3vZNKoqGbdxMAuV6-42" value="" style="endArrow=classic;html=1;rounded=0;exitX=0;exitY=0.75;exitDx=0;exitDy=0;" edge="1" parent="1" source="JkVt3vZNKoqGbdxMAuV6-9" target="JkVt3vZNKoqGbdxMAuV6-17">
          <mxGeometry width="50" height="50" relative="1" as="geometry">
            <mxPoint x="520" y="280" as="sourcePoint" />
            <mxPoint x="570" y="230" as="targetPoint" />
          </mxGeometry>
        </mxCell>
        <mxCell id="JkVt3vZNKoqGbdxMAuV6-44" value="response" style="edgeLabel;html=1;align=center;verticalAlign=middle;resizable=0;points=[];" vertex="1" connectable="0" parent="JkVt3vZNKoqGbdxMAuV6-42">
          <mxGeometry x="-0.0145" y="-1" relative="1" as="geometry">
            <mxPoint as="offset" />
          </mxGeometry>
        </mxCell>
        <mxCell id="JkVt3vZNKoqGbdxMAuV6-51" value="Client" style="text;html=1;align=center;verticalAlign=middle;resizable=0;points=[];autosize=1;strokeColor=none;fillColor=none;" vertex="1" parent="1">
          <mxGeometry x="140" y="280" width="50" height="30" as="geometry" />
        </mxCell>
      </root>
    </mxGraphModel>
  </diagram>
</mxfile>
